<svg width="432" height="128" viewBox="0 0 432 128" fill="none" xmlns="http://www.w3.org/2000/svg">
<rect width="128" height="128" rx="16" fill="#009688"/>
<path d="M20.6569 57.6569C17.5327 54.5327 17.5327 49.4673 20.6569 46.3432L33.3431 33.6569C36.4673 30.5327 41.5327 30.5327 44.6569 33.6569L81.3432 70.3431C84.4673 73.4673 84.4673 78.5327 81.3432 81.6569L68.6569 94.3431C65.5327 97.4673 60.4674 97.4673 57.3432 94.3431L20.6569 57.6569Z" fill="white"/>
<path d="M87.3431 64.3431C90.4673 67.4673 95.5327 67.4673 98.6569 64.3431L105.343 57.6568C108.467 54.5326 108.467 49.4673 105.343 46.3431L92.6569 33.6569C89.5327 30.5327 84.4673 30.5327 81.3431 33.6569L74.6569 40.3432C71.5327 43.4673 71.5327 48.5327 74.6569 51.6569L87.3431 64.3431Z" fill="white"/>
<path d="M198.272 107L177.024 38.008H202.624L213.12 84.088L224.128 38.008H249.472L226.944 107H198.272ZM284.48 107.64C276.629 107.64 270.315 106.659 265.536 104.696C260.757 102.733 257.259 99.2347 255.04 94.2C252.907 89.08 251.84 81.912 251.84 72.696C251.84 63.224 252.821 55.928 254.784 50.808C256.747 45.6027 259.989 41.976 264.512 39.928C269.12 37.88 275.392 36.856 283.328 36.856C290.667 36.856 296.469 37.5387 300.736 38.904C305.003 40.2693 308.032 42.744 309.824 46.328C311.701 49.8267 312.64 54.8187 312.64 61.304C312.64 66.3387 311.659 70.3067 309.696 73.208C307.733 76.024 304.96 78.0293 301.376 79.224C297.792 80.4187 293.568 81.016 288.704 81.016H276.416C276.672 83.064 277.184 84.728 277.952 86.008C278.72 87.2027 280.128 88.056 282.176 88.568C284.224 89.08 287.253 89.336 291.264 89.336H310.08V103.8C307.093 104.653 303.509 105.507 299.328 106.36C295.232 107.213 290.283 107.64 284.48 107.64ZM276.16 66.552H286.016C287.723 66.552 288.96 66.168 289.728 65.4C290.496 64.632 290.88 63.3093 290.88 61.432C290.88 59.8107 290.624 58.488 290.112 57.464C289.6 56.44 288.789 55.7147 287.68 55.288C286.571 54.776 285.12 54.52 283.328 54.52C281.707 54.52 280.341 54.8613 279.232 55.544C278.208 56.2267 277.44 57.464 276.928 59.256C276.416 60.9627 276.16 63.3947 276.16 66.552ZM346.068 107.384C340.607 107.384 336.084 106.531 332.5 104.824C329.001 103.117 326.399 100.6 324.692 97.272C322.985 93.8587 322.132 89.6347 322.132 84.6V9.336H346.964V80.76C346.964 82.3813 347.135 83.7467 347.476 84.856C347.903 85.9653 348.5 86.8187 349.268 87.416C350.121 88.0133 351.188 88.44 352.468 88.696L356.692 89.336V107.384H346.068ZM394.986 107.64C388.842 107.64 383.637 107 379.37 105.72C375.189 104.44 371.818 102.392 369.258 99.576C366.698 96.76 364.863 93.1333 363.754 88.696C362.645 84.1733 362.09 78.712 362.09 72.312C362.09 65.4 362.645 59.6827 363.754 55.16C364.949 50.552 366.826 46.9253 369.386 44.28C371.946 41.5493 375.317 39.6293 379.498 38.52C383.765 37.4107 388.927 36.856 394.986 36.856C401.13 36.856 406.293 37.4533 410.474 38.648C414.741 39.8427 418.111 41.8053 420.586 44.536C423.146 47.1813 424.981 50.808 426.09 55.416C427.285 59.9387 427.882 65.5707 427.882 72.312C427.882 78.968 427.327 84.5573 426.218 89.08C425.194 93.6027 423.402 97.2293 420.842 99.96C418.367 102.691 414.997 104.653 410.73 105.848C406.549 107.043 401.301 107.64 394.986 107.64ZM394.986 87.928C396.607 87.928 397.93 87.8 398.954 87.544C399.978 87.2027 400.789 86.52 401.386 85.496C401.983 84.472 402.41 82.8933 402.666 80.76C402.922 78.6267 403.05 75.768 403.05 72.184C403.05 68.6 402.922 65.784 402.666 63.736C402.41 61.6027 401.983 60.024 401.386 59C400.789 57.976 399.978 57.336 398.954 57.08C397.93 56.7387 396.607 56.568 394.986 56.568C393.365 56.568 392.042 56.7387 391.018 57.08C389.994 57.336 389.183 57.976 388.586 59C387.989 60.024 387.562 61.6027 387.306 63.736C387.05 65.784 386.922 68.6 386.922 72.184C386.922 75.768 387.05 78.6267 387.306 80.76C387.562 82.8933 387.989 84.472 388.586 85.496C389.183 86.52 389.994 87.2027 391.018 87.544C392.042 87.8 393.365 87.928 394.986 87.928Z" fill="white"/>
</svg>
