<svg width="24" height="24" viewBox="0 0 16 16" fill="none" xmlns="http://www.w3.org/2000/svg">
  <rect width="16" height="16" rx="8" fill="currentColor"/>
  <path d="M8.91016 9.83008H7.31055L7.05859 4H9.16211L8.91016 9.83008ZM7 11.6465C7 11.3574 7.10352 11.1211 7.31055 10.9375C7.52148 10.75 7.7832 10.6562 8.0957 10.6562C8.4082 10.6562 8.66797 10.75 8.875 10.9375C9.08594 11.1211 9.19141 11.3574 9.19141 11.6465C9.19141 11.9355 9.08594 12.1738 8.875 12.3613C8.66797 12.5449 8.4082 12.6367 8.0957 12.6367C7.7832 12.6367 7.52148 12.5449 7.31055 12.3613C7.10352 12.1738 7 11.9355 7 11.6465Z" fill="white"/>
</svg>
